<svg width="134" height="32" fill="none" xmlns="http://www.w3.org/2000/svg"><g clip-path="url(#a)" fill="#fff"><path d="M57.03 19.2 53.6 32H60l3.43-12.8h13.6l1.717-6.4H58.744l-1.715 6.4ZM82.176 0h-20L60.46 6.4h20L82.176 0Zm-26.4 0h-20l-1.717 6.4h20L55.776 0Zm27.656 19.2h20l1.715-6.4h-20l-1.715 6.4ZM80 32h20l1.715-6.4h-20L80 32ZM17.03 19.2h20l1.714-6.4h-20l-1.715 6.4ZM0 32h20l1.715-6.4h-20L0 32ZM108.576 0h-20l-1.715 6.4h20l1.715-6.4Zm20 0h-13.6l-3.429 12.8-.859 3.2-4.288 16H120c3.536 0 7.168-2.864 8.117-6.4l1.715-6.4c.512-1.912.131-3.627-.883-4.8a8.89 8.89 0 0 0 3.467-4.8l.859-3.2c.933-3.533-1.166-6.4-4.699-6.4Zm-6.859 25.6h-7.2l1.715-6.4h7.2l-1.715 6.4Zm4.286-16-.856 3.2h-7.2l1.714-6.4h7.2l-.858 3.2Z"/></g><defs><clipPath id="a"><path fill="#fff" d="M0 0h133.488v32H0z"/></clipPath></defs></svg>