<svg width="134" height="32" viewBox="0 0 134 32" fill="none" xmlns="http://www.w3.org/2000/svg">
<g clip-path="url(#clip0_46_712)">
<path d="M57.0294 19.2L53.6001 32H60.0001L63.4294 19.2H77.0294L78.7468 12.8H58.7441L57.0294 19.2Z" fill="white"/>
<path d="M82.1761 0H62.1761L60.4587 6.4H80.4614L82.1761 0Z" fill="white"/>
<path d="M55.7759 0H35.7759L34.0586 6.4H54.0586L55.7759 0Z" fill="white"/>
<path d="M83.4319 19.2H103.432L105.147 12.8H85.1465L83.4319 19.2Z" fill="white"/>
<path d="M80 32H100L101.715 25.6H81.7147L80 32Z" fill="white"/>
<path d="M17.0293 19.2H37.0293L38.744 12.8H18.744L17.0293 19.2Z" fill="white"/>
<path d="M0 32H20L21.7147 25.6H1.71467L0 32Z" fill="white"/>
<path d="M108.576 0H88.576L86.8613 6.4H106.861L108.576 0Z" fill="white"/>
<path d="M128.576 0H114.976L111.547 12.8L110.688 16L106.4 32H120C123.536 32 127.168 29.136 128.117 25.6L129.832 19.2C130.344 17.288 129.963 15.5733 128.949 14.4C130.619 13.2431 131.843 11.5491 132.416 9.6L133.275 6.4C134.208 2.86667 132.109 0 128.576 0ZM121.717 25.6H114.517L116.232 19.2H123.432L121.717 25.6ZM126.003 9.6L125.147 12.8H117.947L119.661 6.4H126.861L126.003 9.6Z" fill="white"/>
</g>
<defs>
<clipPath id="clip0_46_712">
<rect width="133.488" height="32" fill="white"/>
</clipPath>
</defs>
</svg>
